<svg xmlns="http://www.w3.org/2000/svg" xmlns:xlink="http://www.w3.org/1999/xlink" x="0px" y="0px"
     viewBox="0 0 1000 1000" enable-background="new 0 0 1000 1000" xml:space="preserve">
  <g><path d="M887.9,986.3H112.1C55.8,986.3,10,940.9,10,885V115C10,59.1,55.8,13.7,112.1,13.7h775.8C944.2,13.7,990,59.1,990,115v770C990,940.9,944.2,986.3,887.9,986.3z M112.1,37.8c-42.9,0-77.8,34.6-77.8,77.2v770c0,42.6,34.9,77.2,77.8,77.2h775.8c42.9,0,77.8-34.6,77.8-77.2V115c0-42.6-34.9-77.2-77.8-77.2H112.1z"/></g>
</svg>
